<?xml version="1.0" encoding="UTF-8" standalone="no"?>
<svg width="390px" height="419px" viewBox="0 0 390 419" version="1.1" xmlns="http://www.w3.org/2000/svg" xmlns:xlink="http://www.w3.org/1999/xlink" xmlns:sketch="http://www.bohemiancoding.com/sketch/ns">
    <!-- Generator: Sketch 3.0.4 (8054) - http://www.bohemiancoding.com/sketch -->
    <title>sodaCan 2</title>
    <desc>Created with Sketch.</desc>
    <defs></defs>
    <g id="Page-1" stroke="none" stroke-width="1" fill="none" fill-rule="evenodd" sketch:type="MSPage">
        <ellipse id="Oval-10" stroke="#000000" stroke-width="27" fill="#4990E2" sketch:type="MSShapeGroup" cx="161" cy="213" rx="299" ry="298"></ellipse>
        <g id="Can" sketch:type="MSLayerGroup" stroke="#000000" stroke-width="10" fill="#E95B5B">
            <path d="M11.5540769,46 L10,46 L-0.32614994,91.3865547 L10,378 L10.7219398,378 L10.7219398,378 C18.1465554,401.016579 81.9228622,419 159.5,419 C242.06657,419 309,398.628956 309,373.5 C309,372.194079 308.819229,370.901007 308.464887,369.622997 C310.546591,331.647048 318.909904,173.940359 318.909904,91.3865547 C318.909904,77.65253 311.238374,55.0374057 308.761284,48.0930967 C308.919718,47.2348703 309,46.3702886 309,45.5 C309,20.3710439 242.06657,0 159.5,0 C76.9334299,0 11.54544,20.3710439 11.54544,45.5 C11.54544,45.666878 11.5483236,45.8335462 11.5540769,46 Z" id="Body" sketch:type="MSShapeGroup"></path>
        </g>
        <g id="Top" sketch:type="MSLayerGroup" transform="translate(15.000000, 5.000000)" stroke="#000000" stroke-width="8">
            <ellipse id="Oval-4" sketch:type="MSShapeGroup" cx="140.5" cy="45.5" rx="140.5" ry="45.5"></ellipse>
            <ellipse id="top" fill="#D4CDCD" sketch:type="MSShapeGroup" cx="140.5" cy="45.5" rx="140.5" ry="45.5"></ellipse>
            <ellipse id="openingLarge" fill="#DACECE" sketch:type="MSShapeGroup" cx="190" cy="45.5" rx="68" ry="17.5"></ellipse>
            <ellipse id="openingSmall" fill="#504949" sketch:type="MSShapeGroup" cx="222" cy="45.5" rx="32" ry="17.5"></ellipse>
        </g>
        <g id="buzzLogo" sketch:type="MSLayerGroup" transform="translate(58.000000, 153.000000)">
            <ellipse id="Oval-7" stroke="#000000" stroke-width="6" fill="#4990E2" sketch:type="MSShapeGroup" cx="97.4550277" cy="76.5" rx="97.4550277" ry="76.5"></ellipse>
            <text id="-Buzz" sketch:type="MSTextLayer" font-family="Hiragino Kaku Gothic Std" font-size="50" font-weight="633" fill="#000000">
                <tspan x="22.0199163" y="94.4999372"> Buzz</tspan>
            </text>
        </g>
        <g id="fizzLogo" sketch:type="MSLayerGroup" transform="translate(58.000000, 153.000000)">
            <ellipse id="Oval-7" stroke="#000000" stroke-width="6" fill="#4990E2" sketch:type="MSShapeGroup" cx="97.4550277" cy="76.5" rx="97.4550277" ry="76.5"></ellipse>
            <text id="Fizz" sketch:type="MSTextLayer" font-family="Hiragino Kaku Gothic Std" font-size="50" font-weight="633" fill="#000000">
                <tspan x="42.0199163" y="89.4999372">Fizz</tspan>
            </text>
        </g>
    </g>
</svg>